<svg width="192" height="192" viewBox="0 0 192 192" fill="none" xmlns="http://www.w3.org/2000/svg">
  <!-- Background circle with gradient -->
  <defs>
    <linearGradient id="bgGradient" x1="0%" y1="0%" x2="100%" y2="100%">
      <stop offset="0%" style="stop-color:#6366f1;stop-opacity:1" />
      <stop offset="50%" style="stop-color:#8b5cf6;stop-opacity:1" />
      <stop offset="100%" style="stop-color:#ec4899;stop-opacity:1" />
    </linearGradient>
    <linearGradient id="iconGradient" x1="0%" y1="0%" x2="100%" y2="100%">
      <stop offset="0%" style="stop-color:#ffffff;stop-opacity:1" />
      <stop offset="100%" style="stop-color:#f1f5f9;stop-opacity:1" />
    </linearGradient>
    <filter id="glow">
      <feGaussianBlur stdDeviation="3" result="coloredBlur"/>
      <feMerge> 
        <feMergeNode in="coloredBlur"/>
        <feMergeNode in="SourceGraphic"/>
      </feMerge>
    </filter>
  </defs>
  
  <!-- Background circle with subtle shadow -->
  <circle cx="96" cy="96" r="90" fill="url(#bgGradient)" stroke="rgba(255,255,255,0.3)" stroke-width="4"/>
  
  <!-- Main conversion icon - Modern file with conversion arrow -->
  <path d="M48 36h48l36 36v72H48V36z" fill="url(#iconGradient)" opacity="0.95" filter="url(#glow)"/>
  
  <!-- Conversion arrow with modern design -->
  <path d="M108 72h36l-12-12 12-12" stroke="url(#iconGradient)" stroke-width="6" stroke-linecap="round" stroke-linejoin="round" fill="none" filter="url(#glow)"/>
  
  <!-- AI sparkle effects - more prominent -->
  <circle cx="132" cy="48" r="9" fill="#ffffff" opacity="0.9" filter="url(#glow)"/>
  <circle cx="144" cy="72" r="6" fill="#ffffff" opacity="0.7" filter="url(#glow)"/>
  <circle cx="120" cy="60" r="5" fill="#ffffff" opacity="0.8" filter="url(#glow)"/>
  
  <!-- File content lines -->
  <rect x="60" y="96" width="18" height="12" rx="3" fill="url(#iconGradient)" opacity="0.8"/>
  <rect x="60" y="114" width="24" height="12" rx="3" fill="url(#iconGradient)" opacity="0.8"/>
  <rect x="60" y="132" width="12" height="12" rx="3" fill="url(#iconGradient)" opacity="0.8"/>
  
  <!-- Modern tech elements -->
  <circle cx="156" cy="36" r="3" fill="#ffffff" opacity="0.6"/>
  <circle cx="162" cy="48" r="2" fill="#ffffff" opacity="0.5"/>
  <circle cx="150" cy="42" r="2.5" fill="#ffffff" opacity="0.7"/>
</svg>
